# File created by Blade
# Date/Time:  Tue Jan 27 18:02:00 2015
#---------------------------------------------------------
:version 1.10
:name HOM
:units
  mass 1.0
  length 1.000000
  angle deg
:documentation
     Acclaim Skeleton File
:root
   axis xyz
   order TX TY TZ RX RY RZ
   position 0.000000 0.000000 0.000000
   orientation 0 0 0
:bonedata
   begin
      id 1
      name Spine_dum
      direction 0.000000 1.000000 0.000000
      length 5.195262
      axis 0.0 0.0 0.0 xyz
   end
   begin
      id 2
      name LeftUpLeg_dum
      direction 1.000000 0.000000 0.000000
      length 3.351363
      axis 0.0 0.0 0.0 xyz
   end
   begin
      id 3
      name RightUpLeg_dum
      direction -1.000000 0.000000 0.000000
      length 3.351363
      axis 0.0 0.0 0.0 xyz
   end
   begin
      id 4
      name Spine
      direction 0.000000 1.000000 0.000000
      length 0.000000
      axis 0.0 0.0 0.0 xyz
      dof rx ry rz
   end
   begin
      id 5
      name Spine_dum1
      direction 0.000000 1.000000 0.000000
      length 15.653875
      axis 0.0 0.0 0.0 xyz
   end
   begin
      id 6
      name Spine_dum2
      direction 0.000000 1.000000 0.000000
      length 10.329768
      axis 0.0 0.0 0.0 xyz
   end
   begin
      id 7
      name Spine_dum3
      direction 0.000000 1.000000 0.000000
      length 10.329768
      axis 0.0 0.0 0.0 xyz
   end
   begin
      id 8
      name Head
      direction 0.000000 1.000000 0.000000
      length 4.527550
      axis 0.0 0.0 0.0 xyz
      dof rx ry rz
   end
   begin
      id 9
      name LeftShoulder
      direction 1.000000 0.000000 0.000000
      length 6.996006
      axis 0.0 0.0 -90.0 xyz
      dof rx ry rz
   end
   begin
      id 10
      name LeftArm
      direction 1.000000 0.000000 0.000000
      length 10.209302
      axis 0.0 0.0 -90.0 xyz
      dof rx ry rz
   end
   begin
      id 11
      name LeftForeArm
      direction 1.000000 0.000000 0.000000
      length 8.563163
      axis 0.0 0.0 -90.0 xyz
      dof ry rz rx
   end
   begin
      id 12
      name LeftHand
      direction 0.000000 0.000000 0.000000
      length 0.000000
      axis 0.0 0.0 -90.0 xyz
      dof rx ry rz
   end
   begin
      id 13
      name LeftHand_dum1
      direction 0.000000 0.000000 0.000000
      length 0.000000
      axis 0.0 0.0 -90.0 xyz
   end
   begin
      id 14
      name LeftHand_dum2
      direction 1.000000 0.000000 0.000000
      length 3.937000
      axis 0.0 0.0 -90.0 xyz
   end
   begin
      id 15
      name LeftHandThumb1
      direction 0.000000 0.000000 1.000000
      length 3.937000
      axis 0.0 0.0 -90.0 xyz
      dof rx rz ry
   end
   begin
      id 16
      name RightShoulder
      direction -1.000000 0.000000 0.000000
      length 6.996006
      axis 0.0 0.0 90.0 xyz
      dof rx ry rz
   end
   begin
      id 17
      name RightArm
      direction -1.000000 0.000000 0.000000
      length 10.209302
      axis 0.0 0.0 90.0 xyz
      dof rx ry rz
   end
   begin
      id 18
      name RightForeArm
      direction -1.000000 0.000000 0.000000
      length 8.563163
      axis 0.0 0.0 90.0 xyz
      dof ry rz rx
   end
   begin
      id 19
      name RightHand
      direction 0.000000 0.000000 0.000000
      length 0.000000
      axis 0.0 0.0 90.0 xyz
      dof rx ry rz
   end
   begin
      id 20
      name RightHand_dum1
      direction 0.000000 0.000000 0.000000
      length 0.000000
      axis 0.0 0.0 90.0 xyz
   end
   begin
      id 21
      name RightHand_dum2
      direction -1.000000 0.000000 0.000000
      length 3.937000
      axis 0.0 0.0 90.0 xyz
   end
   begin
      id 22
      name RightHandThumb1
      direction 0.000000 0.000000 1.000000
      length 3.937000
      axis 0.0 0.0 90.0 xyz
      dof rx rz ry
   end
   begin
      id 23
      name LeftUpLeg
      direction 0.000000 -1.000000 0.000000
      length 16.346831
      axis 0.0 0.0 0.0 xyz
      dof rx ry rz
   end
   begin
      id 24
      name LeftLeg
      direction 0.000000 -1.000000 0.000000
      length 13.959795
      axis 0.0 0.0 0.0 xyz
      dof rx ry rz
   end
   begin
      id 25
      name LeftFoot
      direction 0.000000 -0.258819 0.965926
      length 5.165550
      axis 15.0 0.0 0.0 xyz
      dof rx ry rz
   end
   begin
      id 26
      name LeftToeBase
      direction 0.000000 0.000000 1.000000
      length 2.952750
      axis 0.0 0.0 0.0 xyz
      dof rx ry rz
   end
   begin
      id 27
      name RightUpLeg
      direction 0.000000 -1.000000 0.000000
      length 16.346831
      axis 0.0 0.0 0.0 xyz
      dof rx ry rz
   end
   begin
      id 28
      name RightLeg
      direction 0.000000 -1.000000 0.000000
      length 13.959795
      axis 0.0 0.0 0.0 xyz
      dof rx ry rz
   end
   begin
      id 29
      name RightFoot
      direction 0.000000 -0.258819 0.965926
      length 5.165550
      axis 15.0 0.0 0.0 xyz
      dof rx ry rz
   end
   begin
      id 30
      name RightToeBase
      direction 0.000000 0.000000 1.000000
      length 2.952750
      axis 0.0 0.0 0.0 xyz
      dof rx ry rz
   end
:hierarchy
   begin
      root Spine_dum LeftUpLeg_dum RightUpLeg_dum
      Spine_dum Spine
      LeftUpLeg_dum LeftUpLeg
      RightUpLeg_dum RightUpLeg
      Spine Spine_dum1 Spine_dum2 Spine_dum3
      Spine_dum1 Head
      Spine_dum2 LeftShoulder
      Spine_dum3 RightShoulder
      LeftShoulder LeftArm
      LeftArm LeftForeArm
      LeftForeArm LeftHand
      LeftHand LeftHand_dum1 LeftHand_dum2
      LeftHand_dum1 LeftHandThumb1
      RightShoulder RightArm
      RightArm RightForeArm
      RightForeArm RightHand
      RightHand RightHand_dum1 RightHand_dum2
      RightHand_dum1 RightHandThumb1
      LeftUpLeg LeftLeg
      LeftLeg LeftFoot
      LeftFoot LeftToeBase
      RightUpLeg RightLeg
      RightLeg RightFoot
      RightFoot RightToeBase
   end

# File created by Blade
# Date/Time:  Tue Jan 27 18:01:49 2015
# Frame Rate: 120.000 fps
#------------------------------------------------------
:FULLY-SPECIFIED
:DEGREES
107
root -1.415632 31.873725 -6.634994 5.369597 4.688463 3.871096
Spine -5.603303 -6.314382 -2.598431
Head 1.546936 9.836359 -0.176376
LeftShoulder -18.948812 15.890445 23.642835
LeftArm 20.670614 -19.955311 -26.890969
LeftForeArm 1.604758 -0.000000 0.783862
LeftHand -13.087690 -0.000000 -11.754658
LeftHandThumb1 -26.253704 0.000000 33.147579
RightShoulder -12.764355 9.552739 -37.027207
RightArm 17.144486 19.002526 34.735296
RightForeArm -25.021587 -0.000000 7.984115
RightHand -14.810824 -0.000000 15.410119
RightHandThumb1 -24.326973 -0.000000 -32.862282
LeftUpLeg -1.175881 -0.312503 -1.900274
LeftLeg 1.600860 -0.000000 -0.000000
LeftFoot -18.391761 17.892845 -24.548471
LeftToeBase 8.789759 -0.000000 -0.000000
RightUpLeg 1.415203 -5.766666 -6.994828
RightLeg -2.098394 -0.000000 0.000000
RightFoot -14.881851 -12.161332 11.273719
RightToeBase 4.026955 -0.000000 -0.000000
108
root -1.384819 31.874957 -6.636828 5.328266 4.670242 3.888781
Spine -5.591850 -6.277659 -2.659635
Head 1.612423 9.800520 -0.100057
LeftShoulder -18.980769 16.128036 23.515499
LeftArm 20.899551 -19.880688 -27.116389
LeftForeArm 1.438470 -0.000000 0.843594
LeftHand -12.930950 0.000000 -11.657751
LeftHandThumb1 -26.253704 0.000000 33.147579
RightShoulder -12.750332 9.533435 -37.036355
RightArm 17.250766 19.120584 34.720463
RightForeArm -24.906582 -0.000000 8.135468
RightHand -14.880575 -0.000000 15.224465
RightHandThumb1 -24.326973 -0.000000 -32.862282
LeftUpLeg -1.121328 -0.355962 -1.976859
LeftLeg 1.582191 -0.000000 -0.000000
LeftFoot -18.418253 17.956868 -24.529434
LeftToeBase 8.812985 -0.000000 -0.000000
RightUpLeg 1.417638 -5.644181 -7.074317
RightLeg -2.016645 -0.000000 0.000000
RightFoot -14.925130 -12.237113 11.357060
RightToeBase 3.960082 -0.000000 -0.000000
109
root -1.350302 31.876306 -6.640646 5.309271 4.663708 3.901032
Spine -5.607449 -6.243726 -2.706997
Head 1.683665 9.767995 -0.038042
LeftShoulder -18.968807 16.246280 23.426602
LeftArm 20.994084 -19.583482 -27.308010
LeftForeArm 1.191000 -0.000000 1.009299
LeftHand -12.845842 -0.000000 -11.298691
LeftHandThumb1 -26.253704 0.000000 33.147579
RightShoulder -12.748170 9.615686 -37.001636
RightArm 17.350898 19.288209 34.652836
RightForeArm -24.801435 -0.000000 8.279089
RightHand -14.884588 -0.000000 14.860840
RightHandThumb1 -24.326973 -0.000000 -32.862282
LeftUpLeg -1.113584 -0.369149 -2.050428
LeftLeg 1.598217 -0.000000 -0.000000
LeftFoot -18.379582 17.998382 -24.374584
LeftToeBase 8.732329 -0.000000 -0.000000
RightUpLeg 1.324943 -5.783282 -7.143870
RightLeg -1.790444 -0.000000 0.000000
RightFoot -14.973324 -12.140046 11.327130
RightToeBase 3.939224 -0.000000 -0.000000
110
root -1.315434 31.877864 -6.646606 5.267915 4.659222 3.912440
Spine -5.576805 -6.217093 -2.749916
Head 1.709368 9.705070 0.042206
LeftShoulder -18.979138 16.369773 23.334497
LeftArm 21.064979 -19.110823 -27.484405
LeftForeArm 0.879855 0.000000 1.277503
LeftHand -12.937744 -0.000000 -11.146972
LeftHandThumb1 -26.253704 0.000000 33.147579
RightShoulder -12.765545 9.696767 -36.980412
RightArm 17.450277 19.326080 34.542950
RightForeArm -24.605412 -0.000000 8.504233
RightHand -15.073931 -0.000000 14.593598
RightHandThumb1 -24.326973 -0.000000 -32.862282
LeftUpLeg -1.086275 -0.412255 -2.132721
LeftLeg 1.629626 -0.000000 -0.000000
LeftFoot -18.445578 18.043002 -24.409708
LeftToeBase 8.753628 -0.000000 -0.000000
RightUpLeg 1.314328 -5.663929 -7.225455
RightLeg -1.690705 -0.000000 0.000000
RightFoot -15.012333 -12.226081 11.428915
RightToeBase 3.941759 -0.000000 -0.000000
111
root -1.286623 31.879494 -6.650643 5.212554 4.635083 3.863418
Spine -5.543975 -6.208428 -2.736128
Head 1.754806 9.661144 0.147542
LeftShoulder -18.971811 16.360268 23.306332
LeftArm 21.081674 -18.690433 -27.777077
LeftForeArm 0.711147 0.000000 1.459063
LeftHand -12.845885 0.000000 -10.825701
LeftHandThumb1 -26.253704 0.000000 33.147579
RightShoulder -12.734350 9.836911 -36.982129
RightArm 17.501395 19.464397 34.496965
RightForeArm -24.493069 -0.000000 8.814380
RightHand -15.302448 -0.000000 14.265507
RightHandThumb1 -24.326973 -0.000000 -32.862282
LeftUpLeg -1.042651 -0.403386 -2.132483
LeftLeg 1.640730 -0.000000 -0.000000
LeftFoot -18.433366 18.046060 -24.285831
LeftToeBase 8.683856 -0.000000 -0.000000
RightUpLeg 1.364749 -5.276270 -7.241549
RightLeg -1.703020 -0.000000 0.000000
RightFoot -15.025447 -12.492322 11.645104
RightToeBase 3.964197 -0.000000 -0.000000
112
root -1.247201 31.880218 -6.655058 5.162050 4.621738 3.900800
Spine -5.512273 -6.185675 -2.797832
Head 1.815672 9.665896 0.181248
LeftShoulder -18.939452 16.416268 23.235703
LeftArm 21.128724 -18.271580 -28.070248
LeftForeArm 0.592851 -0.000000 1.629903
LeftHand -12.726937 0.000000 -10.512515
LeftHandThumb1 -26.253704 0.000000 33.147579
RightShoulder -12.728758 9.944053 -37.002698
RightArm 17.561521 19.650193 34.464939
RightForeArm -24.397227 -0.000000 9.164314
RightHand -15.426542 -0.000000 13.869830
RightHandThumb1 -24.326973 -0.000000 -32.862282
LeftUpLeg -0.998033 -0.440264 -2.244760
LeftLeg 1.655546 -0.000000 -0.000000
LeftFoot -18.460599 18.095836 -24.251867
LeftToeBase 8.701070 -0.000000 -0.000000
RightUpLeg 1.262945 -5.485535 -7.351862
RightLeg -1.386011 -0.000000 0.000000
RightFoot -15.133391 -12.290389 11.617792
RightToeBase 3.970965 -0.000000 -0.000000
113
root -1.204614 31.880885 -6.660625 5.126642 4.591305 3.947531
Spine -5.503360 -6.174937 -2.853187
Head 1.884166 9.659269 0.231506
LeftShoulder -18.937319 16.579426 23.069950
LeftArm 21.241177 -17.847868 -28.316160
LeftForeArm 0.224879 -0.000000 1.715769
LeftHand -12.397591 -0.000000 -10.191507
LeftHandThumb1 -26.253704 0.000000 33.147579
RightShoulder -12.689408 10.092611 -37.066087
RightArm 17.572958 19.892289 34.476943
RightForeArm -24.276802 -0.000000 9.610040
RightHand -15.571615 -0.000000 13.578488
RightHandThumb1 -24.326973 -0.000000 -32.862282
LeftUpLeg -0.957442 -0.510033 -2.375987
LeftLeg 1.650983 -0.000000 -0.000000
LeftFoot -18.491469 18.203151 -24.228250
LeftToeBase 8.688755 -0.000000 -0.000000
RightUpLeg 1.132579 -5.677507 -7.474698
RightLeg -1.053717 -0.000000 0.000000
RightFoot -15.235642 -12.106818 11.583309
RightToeBase 3.849227 -0.000000 -0.000000
114
root -1.166374 31.881848 -6.665204 5.088857 4.560085 3.954704
Spine -5.502469 -6.174912 -2.879782
Head 1.980198 9.677183 0.287027
LeftShoulder -18.957622 16.700873 22.952660
LeftArm 21.372787 -17.457321 -28.649662
LeftForeArm -0.077542 -0.000000 1.775575
LeftHand -12.087977 0.000000 -10.125354
LeftHandThumb1 -26.253704 0.000000 33.147579
RightShoulder -12.686816 10.160396 -37.088780
RightArm 17.723632 20.068434 34.476725
RightForeArm -23.999397 -0.000000 10.048178
RightHand -15.637568 0.000000 13.152360
RightHandThumb1 -24.326973 -0.000000 -32.862282
LeftUpLeg -0.925264 -0.519820 -2.461828
LeftLeg 1.672169 -0.000000 -0.000000
LeftFoot -18.547760 18.255223 -24.215907
LeftToeBase 8.716537 -0.000000 -0.000000
RightUpLeg 1.011458 -5.820911 -7.556110
RightLeg -0.736713 -0.000000 0.000000
RightFoot -15.330952 -11.930553 11.604284
RightToeBase 3.894566 -0.000000 -0.000000
115
root -1.127925 31.882650 -6.672234 5.055050 4.539143 3.963709
Spine -5.496048 -6.220520 -2.898543
Head 2.065700 9.702076 0.356251
LeftShoulder -18.994705 16.801254 22.792392
LeftArm 21.493719 -17.157748 -29.004595
LeftForeArm -0.185655 -0.000000 1.841991
LeftHand -11.842470 -0.000000 -10.135653
LeftHandThumb1 -26.253704 0.000000 33.147579
RightShoulder -12.623295 10.297270 -37.141640
RightArm 17.768423 20.245072 34.465239
RightForeArm -23.762748 -0.000000 10.569885
RightHand -15.794261 0.000000 12.939526
RightHandThumb1 -24.326973 -0.000000 -32.862282
LeftUpLeg -0.906874 -0.554605 -2.539877
LeftLeg 1.688400 -0.000000 -0.000000
LeftFoot -18.550066 18.302661 -24.138041
LeftToeBase 8.669539 -0.000000 -0.000000
RightUpLeg 0.945700 -5.759480 -7.639136
RightLeg -0.540288 -0.000000 0.000000
RightFoot -15.411515 -11.946308 11.682466
RightToeBase 3.922490 -0.000000 -0.000000
